<svg xmlns="http://www.w3.org/2000/svg" viewBox="0 0 45 14"><defs><style>.a{fill:#f2f2f2;}.b{fill:#e6e6e6;}.c{fill:#b3b3b3;}</style></defs><path class="a" d="M43.38,10.85c0,.51,0,1,0,1.53s.18.77.7.76a.29.29,0,0,1-.07.34,3.44,3.44,0,0,1-1.85.19c-.41-.1-.83-.08-1.24-.18s-1.1-.31-1.65-.45c-1.17-.61-2.42-1-3.61-1.6a21.47,21.47,0,0,1-2.22-.9c-.47-.08-.86-.35-1.31-.45a1.55,1.55,0,0,1-.31-.06,1.89,1.89,0,0,0-.94-.16,1.94,1.94,0,0,1-.33-.07,16.54,16.54,0,0,0-3.49-.59c-3.73-.61-7.46-1.22-11.17-2a2.32,2.32,0,0,0-1.11,0,11,11,0,0,0-4.19.3,1.42,1.42,0,0,1-1.09-.08c-.25-.16-.39-.43-.23-.67,1.2-1.88,2.07-4,3.87-5.47,2.31-1.12,4.65-.61,7-.21,3.33.56,6.64,1.25,10,1.72a13.33,13.33,0,0,1,4,1.09c1.72,1.13,2.95,2.79,4.45,4.17a6.82,6.82,0,0,0,.77.75,2.11,2.11,0,0,0,1.2.84,3.85,3.85,0,0,0,2,.71A1.13,1.13,0,0,1,43.38,10.85Z"/><path class="b" d="M34.17,4.35C32,3.29,29.67,3.27,27.4,2.84c-3.34-.64-6.71-1.14-10.07-1.7a6.61,6.61,0,0,0-4.12.71,2.13,2.13,0,0,0-1.44.93,28.55,28.55,0,0,0-3,4.94c-.67.75-1.67.72-2.53,1A9.24,9.24,0,0,0,5,9.2a1.34,1.34,0,0,1-1.17,0c-.38-.44,0-.76.2-1.09.5-1,1.11-1.86,1.52-2.87A2.21,2.21,0,0,1,6.76,4,24.1,24.1,0,0,0,9.39,2.53a22.75,22.75,0,0,1,5-2A7.72,7.72,0,0,1,17.71.33C22.55,1.16,27.37,2,32.2,2.9a10.77,10.77,0,0,1,1.07.31,3.12,3.12,0,0,1,1.11.66C34.6,4.09,34.58,4.34,34.17,4.35Z"/><path class="c" d="M9.39,2.53A7.41,7.41,0,0,1,7.29,4,4.45,4.45,0,0,0,5.64,6,11.76,11.76,0,0,1,3.77,9.12c0,.6-.5.69-.92.84a.69.69,0,0,1-.46-.15,8.24,8.24,0,0,1,3-5.15c.28-.7,1-.64,1.56-1C7.83,3.47,8.46,2.68,9.39,2.53Z"/><path class="a" d="M34.17,4.35c.21-.78-.69-.69-.9-1.14a3.76,3.76,0,0,1,2.26,1.33c1.33,1.22,2.54,2.57,3.81,3.86-.3.34-.6,0-.9,0Z"/><path class="a" d="M38.44,8.42c.29-.69.6.15.9,0A6.31,6.31,0,0,0,42.94,10c.54,0,.48.45.44.83A3.79,3.79,0,0,1,40.25,10c-.39-.28-.74-.62-1.14-.89Z"/><path class="c" d="M2.4,9.73a5.3,5.3,0,0,1-1.57.71A19,19,0,0,1,2.19,7.51c1.14-.88,1.95-2.18,3.36-2.72A7.78,7.78,0,0,0,3.14,9C3.08,9.25,2.66,9.48,2.4,9.73Z"/><path class="b" d="M9.4,7.34c-.17.23-.43.16-.66.18-.64-.27-.19-.68,0-.87A27.48,27.48,0,0,0,10.9,3.16a2.66,2.66,0,0,1,2.31-1.31c-.57.2-.76.72-1.05,1.17C11.26,4.47,10.32,5.9,9.4,7.34Z"/><path class="a" d="M39.11,9.09c.58.05.86.46,1.14.89A1.51,1.51,0,0,1,39.11,9.09Z"/></svg>