<svg xmlns="http://www.w3.org/2000/svg" viewBox="0 0 77 39"><defs><style>.a{fill:#434445;}.b{fill:#8d8d8b;}.c{fill:#fff;}.d{fill:blue;}.e{fill:lime;}.f{fill:#ff0;}.g{fill:red;}</style></defs><circle class="a" cx="28.98" cy="10.5" r="9.1"/><path class="b" d="M28.15,9.82,23.37,5.28h2.3l3.55,3.49,3.54-3.49h2.3L30.28,9.82l5.23,4.92H33.2l-4-3.87-4,3.87h-2.3Z"/><circle class="a" cx="9.72" cy="10.72" r="9"/><path class="b" d="M3.46,6.21h2.1l4.29,4.27,4.29-4.27h2.11l-5.35,5.2v4.15h-2V11.41Z"/><circle class="a" cx="66.98" cy="9.91" r="9.1"/><path class="b" d="M61.47,4.85h7.09a5.42,5.42,0,0,1,2.92.72,2,2,0,0,1,1.07,1.77,1.76,1.76,0,0,1-1,1.49,4.06,4.06,0,0,1-1.33.5,4.94,4.94,0,0,1,1.68.61A1.93,1.93,0,0,1,73,11.6a2.38,2.38,0,0,1-1.33,2,6.14,6.14,0,0,1-3.19.67h-7Zm2,1.05V8.83h4.78a2.78,2.78,0,0,0,1.51-.39,1.32,1.32,0,0,0,.71-1.16,1.25,1.25,0,0,0-.71-1,2.5,2.5,0,0,0-1.33-.33Zm0,4v3.37H68a3.8,3.8,0,0,0,2-.44,1.42,1.42,0,0,0,.8-1.21,1.35,1.35,0,0,0-.71-1.22A4,4,0,0,0,68,9.88Z"/><circle class="a" cx="47.99" cy="10.14" r="9.1"/><path class="b" d="M41.44,14.08l6-9.57h1.77l6,9.57H53.13L51.27,11.2H45.42l-1.86,2.88Zm6.91-7.75L46,10.15h4.61Z"/><ellipse class="c" cx="28.99" cy="28.92" rx="9.1" ry="9.08"/><path class="d" d="M28.16,28.24l-4.78-4.52h2.3l3.55,3.47,3.54-3.47h2.3l-4.78,4.52,5.22,4.91h-2.3l-4-3.86-4,3.86h-2.3Z"/><circle class="c" cx="9.72" cy="29.16" r="9"/><path class="e" d="M3.47,24.65h2.1l4.29,4.27,4.29-4.27h2.1l-5.34,5.2V34h-2V29.85Z"/><circle class="c" cx="66.99" cy="28.35" r="9.1"/><path class="f" d="M61.48,23.29h7.09a5.42,5.42,0,0,1,2.92.72,2,2,0,0,1,1.06,1.77,1.75,1.75,0,0,1-1,1.49,4.06,4.06,0,0,1-1.33.5,5.16,5.16,0,0,1,1.68.61A1.93,1.93,0,0,1,73,30a2.4,2.4,0,0,1-1.33,2,6,6,0,0,1-3.19.67h-7Zm2,1.05v2.93H68.3a2.8,2.8,0,0,0,1.51-.39,1.32,1.32,0,0,0,.71-1.16,1.27,1.27,0,0,0-.71-1,2.5,2.5,0,0,0-1.33-.33Zm0,4V31.7H68a3.79,3.79,0,0,0,2-.45,1.43,1.43,0,0,0,.8-1.21,1.37,1.37,0,0,0-.71-1.22,4,4,0,0,0-2.12-.5Z"/><circle class="c" cx="48" cy="28.58" r="9.1"/><path class="g" d="M41.45,32.52l6-9.57h1.77l6,9.57H53.14l-1.86-2.88H45.43l-1.86,2.88Zm6.91-7.75-2.31,3.82h4.61Z"/></svg>