<svg xmlns="http://www.w3.org/2000/svg" viewBox="0 0 214 104.94"><defs><style>.a{fill:#434445;}.b{fill:#8d8d8b;}.c{fill:#fff;}.d{fill:blue;}.e{fill:lime;}.f{fill:#ff0;}.g{fill:red;}</style></defs><circle class="a" cx="81.35" cy="28.11" r="25"/><path class="b" d="M79.09,26.26,66,13.8h6.33L82,23.37l9.73-9.57h6.33L84.93,26.26,99.28,39.78H93L82,29.14l-11,10.64H64.74Z"/><circle class="a" cx="28.11" cy="28.73" r="25"/><path class="b" d="M10.73,16.21h5.84L28.49,28.06,40.41,16.21h5.84L31.41,30.64V42.19H25.82V30.64Z"/><circle class="a" cx="186.38" cy="26.5" r="25"/><path class="b" d="M171.26,12.59h19.47a15,15,0,0,1,8,2,5.53,5.53,0,0,1,2.92,4.87c0,1.62-.89,3-2.67,4.1a11.22,11.22,0,0,1-3.65,1.36A14.38,14.38,0,0,1,200,26.57q2.92,1.82,2.92,4.55,0,3.35-3.65,5.62-2.91,1.83-8.76,1.83H171.26Zm5.6,2.89v8.05H190a7.62,7.62,0,0,0,4.13-1.07,3.64,3.64,0,0,0,2-3.19,3.44,3.44,0,0,0-2-2.88,6.75,6.75,0,0,0-3.65-.91Zm0,10.93v9.27h12.41a10.52,10.52,0,0,0,5.59-1.22,3.93,3.93,0,0,0,2.19-3.34,3.77,3.77,0,0,0-1.94-3.34,11,11,0,0,0-5.84-1.37Z"/><circle class="a" cx="133.91" cy="27.12" r="25"/><path class="b" d="M115.91,37.94l16.54-26.28h4.87l16.54,26.28H148L142.91,30h-16l-5.11,7.9Zm19-21.27-6.33,10.48h12.65Z"/><circle class="c" cx="81.37" cy="79.03" r="25" transform="translate(1.65 159.72) rotate(-89.51)"/><path class="d" d="M79.13,77.15l-13-12.57,6.33.06,9.64,9.65,9.82-9.49,6.32.06L85,77.2,99.2,90.84l-6.32,0L82,80.06,71,90.6l-6.33,0Z"/><circle class="c" cx="28.14" cy="79.7" r="25"/><path class="e" d="M10.76,67.18H16.6L28.52,79,40.44,67.18h5.83L31.44,81.61V93.16h-5.6V81.61Z"/><circle class="c" cx="186.41" cy="77.47" r="25"/><path class="f" d="M171.29,63.56h19.46a14.91,14.91,0,0,1,8,2,5.52,5.52,0,0,1,2.92,4.86c0,1.62-.9,3-2.68,4.1a11,11,0,0,1-3.65,1.36A14.29,14.29,0,0,1,200,77.54q2.92,1.81,2.92,4.55c0,2.23-1.21,4.1-3.65,5.62q-2.91,1.83-8.75,1.83H171.29Zm5.59,2.89v8H190a7.68,7.68,0,0,0,4.14-1.07,3.65,3.65,0,0,0,1.94-3.19,3.45,3.45,0,0,0-1.94-2.88,6.77,6.77,0,0,0-3.65-.91Zm0,10.93v9.27h12.41a10.66,10.66,0,0,0,5.6-1.21,3.94,3.94,0,0,0,2.18-3.35,3.75,3.75,0,0,0-1.94-3.34,11,11,0,0,0-5.84-1.37Z"/><circle class="c" cx="133.94" cy="78.09" r="25"/><path class="g" d="M115.94,88.91l16.54-26.28h4.86l16.54,26.28h-5.83L142.94,81H126.88l-5.11,7.9Zm19-21.27-6.33,10.48h12.65Z"/></svg>