<svg xmlns="http://www.w3.org/2000/svg" width="758" height="692" viewBox="0 0 758 692">
  <defs>
    <style>
      .a, .b {
        fill: red;
      }

      .b {
        stroke: red;
        stroke-width: 3px;
      }
    </style>
  </defs>
  <g>
    <path class="a" d="M758,514,742,654l-15,27-15,7-48,4-18-8-34-63-31-67-23-53-37-25-39.35-6.72L412,473H346l-69.65-3.72L237,476l-37,25-23,53-31,67-34,63-18,8-48-4-15-7L16,654,0,514l7-64L61,297,91,183l8-14,9-5v-3l3-8s10.04-8.91,31-19c27-13,65-23,73-23s17,9,17,9v2l24,4,17,9H485l17-9,24-4v-2s9-9,17-9,46,10,73,23c20.96,10.09,31,19,31,19l3,8v3l9,5,8,14,30,114,54,153Z"/>
    <path class="b" d="M106.942,116.622S124,107.767,156.951,101.9c35.762-6.364,60.5-8.77,60.5-8.77s-4.186-18.249-10.334-30.865C204.5,56.895,201.477,53.99,200.2,51.2,195.934,41.843,179.668-7.4,146.7,3.286s-45.334,49.538-43.574,68.545S106.942,116.622,106.942,116.622Z"/>
    <path class="b" d="M651.058,116.622S634,107.767,601.049,101.9c-35.762-6.364-60.5-8.77-60.5-8.77s4.186-18.249,10.334-30.865c2.618-5.373,5.639-8.278,6.914-11.071C562.066,41.843,578.332-7.4,611.3,3.286s45.334,49.538,43.574,68.545S651.058,116.622,651.058,116.622Z"/>
    <g>
      <path d="M147.754,285.41h19.052a37.211,37.211,0,0,1,9.826.986,17.273,17.273,0,0,1,7.783,4.754,22.571,22.571,0,0,1,4.93,8.363,38.107,38.107,0,0,1,1.69,12.2A33.921,33.921,0,0,1,189.45,322.7a22.763,22.763,0,0,1-5.529,9.121,18.331,18.331,0,0,1-7.325,4.12,31.513,31.513,0,0,1-9.227,1.092H147.754Zm10.424,8.734v34.194h7.783a28.373,28.373,0,0,0,6.3-.493,9.612,9.612,0,0,0,4.208-2.148,10.93,10.93,0,0,0,2.729-4.982,33.693,33.693,0,0,0,1.056-9.456,30.852,30.852,0,0,0-1.056-9.191,11.818,11.818,0,0,0-2.958-5,9.921,9.921,0,0,0-4.825-2.43,47.338,47.338,0,0,0-8.557-.492Z"/>
      <path d="M199.8,294.566V285.41h9.9v9.156Zm0,42.471v-37.4h9.9v37.4Z"/>
      <path d="M216.355,326.367l9.931-1.515a7.276,7.276,0,0,0,2.571,4.384,8.685,8.685,0,0,0,5.423,1.5,9.789,9.789,0,0,0,5.775-1.409,3.142,3.142,0,0,0,1.3-2.641,2.6,2.6,0,0,0-.7-1.867,7.913,7.913,0,0,0-3.31-1.3q-11.974-2.64-15.178-4.824a9.634,9.634,0,0,1-4.437-8.416,10.375,10.375,0,0,1,3.838-8.171q3.838-3.309,11.9-3.31,7.677,0,11.41,2.5a12.786,12.786,0,0,1,5.142,7.395l-9.332,1.727a5.776,5.776,0,0,0-2.271-3.346,8.3,8.3,0,0,0-4.772-1.162q-3.909,0-5.6,1.092A2.343,2.343,0,0,0,226.92,309a2.185,2.185,0,0,0,.986,1.8q1.338.987,9.244,2.782t11.041,4.4a9.15,9.15,0,0,1,3.1,7.36,11.3,11.3,0,0,1-4.3,8.839q-4.3,3.7-12.713,3.7-7.642,0-12.1-3.1A14.274,14.274,0,0,1,216.355,326.367Z"/>
      <path d="M292.562,310.7l-9.754,1.761a7.081,7.081,0,0,0-2.236-4.4,6.753,6.753,0,0,0-4.525-1.479,7.391,7.391,0,0,0-5.9,2.554q-2.2,2.553-2.2,8.539,0,6.656,2.236,9.4a7.34,7.34,0,0,0,6,2.748,6.666,6.666,0,0,0,4.614-1.6q1.8-1.6,2.535-5.511l9.72,1.655q-1.515,6.691-5.811,10.107t-11.516,3.416q-8.206,0-13.083-5.178t-4.877-14.332q0-9.262,4.9-14.422t13.242-5.158q6.831,0,10.864,2.939A16.3,16.3,0,0,1,292.562,310.7Z"/>
      <path d="M297.774,317.809a20.231,20.231,0,0,1,2.43-9.543,16.671,16.671,0,0,1,6.884-7.043,20.43,20.43,0,0,1,9.949-2.43,18.673,18.673,0,0,1,13.91,5.511,19.045,19.045,0,0,1,5.423,13.929A19.268,19.268,0,0,1,330.9,332.3a18.511,18.511,0,0,1-13.787,5.582,21.727,21.727,0,0,1-9.808-2.324,15.949,15.949,0,0,1-7.1-6.814A22.707,22.707,0,0,1,297.774,317.809Zm10.142.529q0,5.563,2.642,8.521a8.632,8.632,0,0,0,13.012,0q2.623-2.958,2.624-8.592,0-5.495-2.624-8.453a8.636,8.636,0,0,0-13.012,0Q307.916,312.773,307.917,318.338Z"/>
      <path d="M378.137,337.037h-9.9V317.95q0-6.057-.634-7.836a5.506,5.506,0,0,0-2.06-2.765,5.9,5.9,0,0,0-3.434-.986,7.938,7.938,0,0,0-4.613,1.409,7.094,7.094,0,0,0-2.8,3.733q-.758,2.323-.757,8.592v16.939h-9.9v-37.4h9.191v5.493q4.894-6.338,12.326-6.338a14.838,14.838,0,0,1,5.986,1.18,10.042,10.042,0,0,1,4.1,3.011,10.917,10.917,0,0,1,1.937,4.155,30.91,30.91,0,0,1,.546,6.656Z"/>
      <path d="M422.193,337.037h-9.9V317.95q0-6.057-.633-7.836a5.51,5.51,0,0,0-2.061-2.765,5.9,5.9,0,0,0-3.434-.986,7.937,7.937,0,0,0-4.613,1.409,7.1,7.1,0,0,0-2.8,3.733Q398,313.829,398,320.1v16.939h-9.9v-37.4h9.191v5.493q4.9-6.338,12.326-6.338a14.838,14.838,0,0,1,5.986,1.18,10.044,10.044,0,0,1,4.1,3.011,10.908,10.908,0,0,1,1.936,4.155,30.867,30.867,0,0,1,.547,6.656Z"/>
      <path d="M453.887,325.135l9.861,1.654a16.171,16.171,0,0,1-6,8.258,17.64,17.64,0,0,1-10.266,2.836q-9.756,0-14.439-6.375-3.7-5.1-3.7-12.889,0-9.3,4.859-14.562a16.009,16.009,0,0,1,12.291-5.264q8.347,0,13.17,5.511t4.614,16.886H439.484a10.007,10.007,0,0,0,2.395,6.85,7.485,7.485,0,0,0,5.705,2.447,6.055,6.055,0,0,0,3.908-1.268A7.818,7.818,0,0,0,453.887,325.135Zm.564-10q-.105-4.3-2.219-6.533a7.141,7.141,0,0,0-10.494.123,9.133,9.133,0,0,0-2.078,6.41Z"/>
      <path d="M504.95,310.7l-9.755,1.761a7.076,7.076,0,0,0-2.236-4.4,6.751,6.751,0,0,0-4.525-1.479,7.39,7.39,0,0,0-5.9,2.554q-2.2,2.553-2.2,8.539,0,6.656,2.236,9.4a7.34,7.34,0,0,0,6,2.748,6.668,6.668,0,0,0,4.614-1.6q1.8-1.6,2.535-5.511l9.72,1.655q-1.515,6.691-5.811,10.107t-11.516,3.416q-8.206,0-13.083-5.178t-4.878-14.332q0-9.262,4.9-14.422t13.241-5.158q6.832,0,10.864,2.939A16.292,16.292,0,0,1,504.95,310.7Z"/>
      <path d="M529.6,299.638v7.888H522.84V322.6a37.3,37.3,0,0,0,.194,5.335,2.17,2.17,0,0,0,.88,1.25,2.785,2.785,0,0,0,1.674.493,12.827,12.827,0,0,0,3.979-.95l.846,7.677a19.685,19.685,0,0,1-7.818,1.479,12.4,12.4,0,0,1-4.824-.9,7.042,7.042,0,0,1-3.152-2.324,9.172,9.172,0,0,1-1.391-3.856,48.028,48.028,0,0,1-.316-6.973V307.525h-4.543v-7.888h4.543v-7.431l9.93-5.775v13.206Z"/>
      <path d="M558.127,325.135l9.861,1.654a16.173,16.173,0,0,1-6,8.258,17.635,17.635,0,0,1-10.266,2.836q-9.754,0-14.438-6.375-3.7-5.1-3.7-12.889,0-9.3,4.859-14.562a16.008,16.008,0,0,1,12.291-5.264q8.345,0,13.17,5.511t4.613,16.886H543.724a10,10,0,0,0,2.4,6.85,7.483,7.483,0,0,0,5.7,2.447,6.056,6.056,0,0,0,3.909-1.268A7.824,7.824,0,0,0,558.127,325.135Zm.563-10q-.105-4.3-2.218-6.533a7.142,7.142,0,0,0-10.5.123,9.128,9.128,0,0,0-2.077,6.41Z"/>
      <path d="M610.881,337.037h-9.191v-5.494a14.839,14.839,0,0,1-5.406,4.771A13.868,13.868,0,0,1,590,337.883a14.245,14.245,0,0,1-11.041-5.2q-4.6-5.194-4.6-14.491,0-9.508,4.473-14.456a14.578,14.578,0,0,1,11.3-4.947A14,14,0,0,1,600.984,304V285.41h9.9Zm-26.412-19.51q0,5.988,1.654,8.663a7.478,7.478,0,0,0,6.691,3.874,7.284,7.284,0,0,0,5.811-2.905q2.4-2.9,2.395-8.681,0-6.445-2.324-9.279a7.353,7.353,0,0,0-5.951-2.836,7.432,7.432,0,0,0-5.9,2.8Q584.468,311.963,584.469,317.527Z"/>
    </g>
  </g>
</svg>
