<svg xmlns="http://www.w3.org/2000/svg" height="48" width="188" viewBox="0 0 188 48"><defs><style>.a{fill:#818181;}.b{fill:#282828;}.c{fill:#393b3d;}.d{fill:#727475;}.e{fill:#2f3132;}.f{fill:#919192;}.g{fill:#47494a;}.h{fill:#fff;}.i{fill:#414445;}.j{fill:#353637;}</style></defs><path class="a" d="M4.25,31.37A22.56,22.56,0,0,0,17.74,44.86V31.37Z"/><path class="b" d="M17.74,2.55A22.54,22.54,0,0,0,4.25,16H17.74Z"/><path class="c" d="M46.56,16A22.53,22.53,0,0,0,33.08,2.55V16Z"/><path class="d" d="M33.08,44.86A22.54,22.54,0,0,0,46.56,31.37H33.08Z"/><path class="e" d="M33.08,16V2.55a22.46,22.46,0,0,0-15.34,0V16Z"/><path class="f" d="M17.74,31.37V44.86a22.62,22.62,0,0,0,15.34,0V31.37Z"/><path class="g" d="M46.56,16H33.08V31.37H46.56a22.46,22.46,0,0,0,0-15.34Z"/><path class="h" d="M17.74,16H4.25a22.62,22.62,0,0,0,0,15.34H17.74Z"/><rect class="i" x="17.74" y="16.03" width="15.34" height="15.34"/><path class="a" d="M50.25,31.37A22.56,22.56,0,0,0,63.74,44.86V31.37Z"/><path class="b" d="M63.74,2.55A22.54,22.54,0,0,0,50.25,16H63.74Z"/><path class="c" d="M92.56,16A22.53,22.53,0,0,0,79.08,2.55V16Z"/><path class="d" d="M79.08,44.86A22.54,22.54,0,0,0,92.56,31.37H79.08Z"/><path class="h" d="M79.08,16V2.55a22.46,22.46,0,0,0-15.34,0V16Z"/><path class="f" d="M63.74,31.37V44.86a22.62,22.62,0,0,0,15.34,0V31.37Z"/><path class="g" d="M92.56,16H79.08V31.37H92.56a22.46,22.46,0,0,0,0-15.34Z"/><path class="j" d="M63.74,16H50.25a22.62,22.62,0,0,0,0,15.34H63.74Z"/><rect class="i" x="63.74" y="16.03" width="15.34" height="15.34"/><path class="a" d="M96.25,31.37a22.56,22.56,0,0,0,13.49,13.49V31.37Z"/><path class="b" d="M109.74,2.55A22.54,22.54,0,0,0,96.25,16h13.49Z"/><path class="c" d="M138.56,16A22.53,22.53,0,0,0,125.08,2.55V16Z"/><path class="d" d="M125.08,44.86a22.54,22.54,0,0,0,13.48-13.49H125.08Z"/><path class="e" d="M125.08,16V2.55a22.46,22.46,0,0,0-15.34,0V16Z"/><path class="f" d="M109.74,31.37V44.86a22.62,22.62,0,0,0,15.34,0V31.37Z"/><path class="h" d="M138.56,16H125.08V31.37h13.48a22.46,22.46,0,0,0,0-15.34Z"/><path class="j" d="M109.74,16H96.25a22.62,22.62,0,0,0,0,15.34h13.49Z"/><rect class="i" x="109.74" y="16.03" width="15.34" height="15.34"/><path class="a" d="M142.25,31.37a22.56,22.56,0,0,0,13.49,13.49V31.37Z"/><path class="b" d="M155.74,2.55A22.54,22.54,0,0,0,142.25,16h13.49Z"/><path class="c" d="M184.56,16A22.53,22.53,0,0,0,171.08,2.55V16Z"/><path class="d" d="M171.08,44.86a22.54,22.54,0,0,0,13.48-13.49H171.08Z"/><path class="e" d="M171.08,16V2.55a22.46,22.46,0,0,0-15.34,0V16Z"/><path class="h" d="M155.74,31.37V44.86a22.62,22.62,0,0,0,15.34,0V31.37Z"/><path class="g" d="M184.56,16H171.08V31.37h13.48a22.46,22.46,0,0,0,0-15.34Z"/><path class="j" d="M155.74,16H142.25a22.62,22.62,0,0,0,0,15.34h13.49Z"/><rect class="i" x="155.74" y="16.03" width="15.34" height="15.34"/></svg>