<svg xmlns="http://www.w3.org/2000/svg" viewBox="0 0 65 24"><defs><style>.a{fill:#434445;}.b{fill:#8d8d8b;}.c{fill:none;}.c,.e{stroke:#8d8d8b;stroke-miterlimit:10;}.d,.e{fill:#fff;}</style></defs><path class="a" d="M27.54,5.49h0c0,1.1,0,2.2,0,3.3a1.62,1.62,0,0,0,1.63,1.8c2.2.08,4.41.12,6.61.12a1.53,1.53,0,0,0,1.69-1.5c0-2.27,0-4.55-.13-6.81A1.73,1.73,0,0,0,35.54.76c-2.09,0-4.19-.07-6.28,0-1.18,0-1.69.61-1.71,1.8C27.53,3.51,27.54,4.5,27.54,5.49Z"/><circle class="b" cx="32.54" cy="5.71" r="1.75"/><rect class="a" x="0.41" y="1.21" width="15" height="9" rx="4.5"/><line class="c" x1="5.91" y1="5.71" x2="9.91" y2="5.71"/><rect class="a" x="49.41" y="1.21" width="15" height="9" rx="4.5"/><line class="c" x1="54.91" y1="5.71" x2="58.91" y2="5.71"/><line class="c" x1="56.91" y1="7.71" x2="56.91" y2="3.71"/><path class="d" d="M27.54,18.49h0c0,1.1,0,2.2,0,3.3a1.62,1.62,0,0,0,1.63,1.8c2.2.08,4.41.12,6.61.12a1.53,1.53,0,0,0,1.69-1.5c0-2.27,0-4.55-.13-6.81a1.73,1.73,0,0,0-1.85-1.64c-2.09,0-4.19-.07-6.28,0-1.18,0-1.69.61-1.71,1.8C27.53,16.51,27.54,17.5,27.54,18.49Z"/><circle class="b" cx="32.54" cy="18.71" r="1.75"/><rect class="d" x="0.41" y="14.21" width="15" height="9" rx="4.5"/><line class="e" x1="5.91" y1="18.71" x2="9.91" y2="18.71"/><rect class="d" x="49.41" y="14.21" width="15" height="9" rx="4.5"/><line class="c" x1="54.91" y1="18.71" x2="58.91" y2="18.71"/><line class="c" x1="56.91" y1="20.71" x2="56.91" y2="16.71"/></svg>