<svg xmlns="http://www.w3.org/2000/svg" viewBox="0 0 28 28"><defs><style>.a{fill:#141415;}.b{fill:#383838;}.c{fill:#1f1f1f;}.d{fill:#313131;}.e{fill:#292a29;}.f{fill:#3e3e3e;}.g{fill:#2d2d2e;}.h{fill:#343536;}.i{fill:#1d1e1f;}.j{fill:#252525;}.k{fill:#2a2c2c;}.l{fill:#242525;}.m{fill:#161616;}.n{fill:#18191b;}.o{fill:#121212;}.p{fill:#2b2b2c;}.q{fill:#222324;}.r{fill:#252628;}.s{fill:#353535;}</style></defs><circle class="a" cx="13.77" cy="14.13" r="12.5"/><path class="b" d="M14.73,2.3l2.4.39a10.37,10.37,0,0,1,3,1.41l-.21,0c-.55.43-.93,0-1.35-.25-.94-.38-1.93-.59-2.81-1,.33.57,1,.62,1.56.79s.85.68,1.37.91c.3.14.57.36.93.19a.24.24,0,0,1,.2.13,1.4,1.4,0,0,1,.1,1.15c-.06.24-.11.51-.35.61s-.43-.16-.55-.36a1.45,1.45,0,0,0-.94-.51,34.2,34.2,0,0,0-3.84-1.08,1.52,1.52,0,0,0-.86.26.77.77,0,0,1-.26,0,12.52,12.52,0,0,0-1.33-.78c-.4-.8-.38-.82.47-.89s1.47.24,2.12-.26c-.26-.28-.47-.11-.68,0a1.1,1.1,0,0,1-.77.21,2.66,2.66,0,0,0-1.65.28c-.36.22-.71.07-.81-.41.06-.52.51-.57.88-.71a1.09,1.09,0,0,1,.26,0c.3.09.57-.08.85-.15.65.1,1.3-.31,2,0Z"/><path class="c" d="M23.59,8.35c.67.43.75,1.23,1.1,1.86.1.18.3.17.36.34-.1.24.09.38.19.56a13.78,13.78,0,0,1,.08,6.51A11.26,11.26,0,0,1,21,23.83c-.19.14-.35.32-.53.48a.51.51,0,0,1-.28.41,2.82,2.82,0,0,0-1,.58c-.91.43-1.74,1.09-2.84.88a.61.61,0,0,1-.19-.2.43.43,0,0,1,0-.25c.34-.24.78-.32,1.05-.67,1.85-1.21,3.91-2.1,5.31-3.95A5.71,5.71,0,0,0,24,17.53c0-.44.3-.78.32-1.22s.1-.9-.59-.83a1.17,1.17,0,0,1-.12-.48l0-.05,0,.06a.83.83,0,0,0,.22.59c.08.49-.26.88-.33,1.35s-.8.3-1.26.4a1.59,1.59,0,0,1-.88-.65c-.16-.31-.26-.62,0-.91.69,0,.65-.47.65-1s-.3-1.32.58-1.6c.08,0,.1,0,.06,0-.71-.64.11-1,.29-1.45A2,2,0,0,0,23.14,10c-.23-.47,0-1-.36-1.53-.18-.28.14-.67.47-.88C23.63,7.7,23.6,8,23.59,8.35Z"/><path class="d" d="M13.29,4.85a1,1,0,0,1,1.44-.26c.23.16.45.06.68.07.39,0,.89-.17,1.15.37.05.12.28.27.36.24.63-.23,1,.05,1.6.33s.84.29.91.88a4.49,4.49,0,0,0,.29-1.63.12.12,0,0,1,.19,0l.18.19a5.64,5.64,0,0,1,2.26,2.77c0,.32.31.51.44.79a.61.61,0,0,1-.47.93c-.32.05-1.59-.66-1.64-1a1,1,0,0,0-.87-.8,3,3,0,0,1-1.3-.62A1.2,1.2,0,0,1,18.3,7a4.1,4.1,0,0,0-2.36-1c-.35,0-.49-.45-.86-.41a1.52,1.52,0,0,0-.65-.22.85.85,0,0,1-.22-.09C14,4.89,13.38,5.44,13.29,4.85Z"/><path class="e" d="M22.12,7.79c-.32-.49-.4-1.18-1.14-1.3.18-.77-.95-.75-.89-1.45,1.11-.21,1.62.61,2.21,1.28-.4.52.48.67.31,1.13A.41.41,0,0,1,22.12,7.79Z"/><path class="c" d="M22.48,7.43c-.07-.37-.92-.6-.18-1.11a2.59,2.59,0,0,0,.91.92c.11.2-.08.32-.1.49s-.2.33-.41.26S22.58,7.61,22.48,7.43Z"/><path class="e" d="M19.91,4.85h-.18a1.46,1.46,0,0,1-1.12-.47c-.21-.26-.43-.55,0-.81a2.29,2.29,0,0,0,1.29.56Z"/><path class="e" d="M25.24,11.11c-.17-.15-.7-.18-.19-.56Z"/><path class="d" d="M18.62,3.57c-.14.87.82.78,1.11,1.28-.22.48-.39.7-.94.22a8.15,8.15,0,0,0-2.4-1.42c-.25-.09-.17.18-.3.21s-.34,0-.29-.07c.54-.79-.54-.64-.62-1.14A11.23,11.23,0,0,1,18.62,3.57Z"/><path class="f" d="M10.53,3.2c.1.07.21.22.29.2.95-.17,1.9-.37,2.84-.56a4.5,4.5,0,0,1,1.1,0v.85c-1-.37-2,.28-3-.2-.07.26.21.43,0,.64l-.08.12c-.28.22-.64.15-1,.2A.7.7,0,0,1,10,4c-.15-.4.13-.61.44-.78Z"/><path class="d" d="M11.82,4.12a1.26,1.26,0,0,1,1.29.73c-.28.55-.85.47-1.31.63h-.27A.68.68,0,0,1,11,5.17C10.59,4.28,11.55,4.48,11.82,4.12Z"/><path class="g" d="M11.82,5.22l1.29-.37h.18c.39.06.9-.24,1.1.37a.5.5,0,0,1-.41.42c-.53.09-1.07.08-1.6.19A.47.47,0,0,1,11.82,5.22Z"/><path class="d" d="M14.76,2.83a1,1,0,0,1-1.1,0C14,2.37,14.4,2.59,14.76,2.83Z"/><path class="f" d="M9.76,3.18a2.9,2.9,0,0,1,1.69-.51c-.27.24-.69.21-.92.53h0C10.27,3.39,10,3.45,9.76,3.18Z"/><path class="f" d="M11.63,2.63a.88.88,0,0,1,0-.15h.69C12.18,2.77,12,3,11.63,2.63Z"/><path class="h" d="M3.72,21c-2.56-3.88-2.48-9.79.16-13.27a2.33,2.33,0,0,1,1.56.36.72.72,0,0,1,0,1,12.59,12.59,0,0,0-1.21,2.7,4,4,0,0,0-.65,2.47c.11.52-.57.54-.72.93a1,1,0,0,0,.13.18c.1.11.23.24.17.4-.66,1.56,0,2.9.72,4.21.2.35.33.66,0,1A.2.2,0,0,1,3.72,21Z"/><path class="b" d="M5.39,8.35c-.47-.3-1.14,0-1.51-.58A10.48,10.48,0,0,1,9.76,3.18l.78,0c0,.34-.56.41-.37.75s.59.22.92.18.49,0,.73,0L12,4.9c-.41-.2-.88-.75-.95.14a.9.9,0,0,1-.75.58C9.3,5.89,8.21,6,7.49,7c-.16.21-.47.25-.73.33a2.37,2.37,0,0,1-1.44.07l0,0a.16.16,0,0,1,.13,0,.62.62,0,0,1,.07.83Z"/><path class="i" d="M8.15,24.88A4.08,4.08,0,0,1,6.67,23.8a2.7,2.7,0,0,1-1-2.21,2,2,0,0,0,0-.24,1.08,1.08,0,0,1-.12-.53c.07-.43.3-.8.75-.79s.58.44.57.86c0,.15-.09.3,0,.46.44-.05.61-.76,1.16-.53s1.2.16,1.42.93c-.08-.75-1-.69-1.09-1.39s-1-.75-.64-1.5a.43.43,0,0,1,.23-.14.92.92,0,0,1,.59.29,7.34,7.34,0,0,0,1.18,1,6.87,6.87,0,0,0,6.09.87,15.27,15.27,0,0,0,1.75-.78,6.42,6.42,0,0,0,2.68-3.4c.07-.19.16-.38.23-.58a19.79,19.79,0,0,0,.32-2.42A4.67,4.67,0,0,0,20.23,12a1.06,1.06,0,0,0-.48.7c-.25,1.24-1.27,1.6-2.22,2.09a8.23,8.23,0,0,1-3.52.72,5.32,5.32,0,0,0-1.85.41,13,13,0,0,1-3.07.87,3.75,3.75,0,0,0-2,.8c-.75.13-.73-.49-.87-.91a1,1,0,0,1,.5-1.34,14.11,14.11,0,0,1,4.07-1.24,1,1,0,0,1,.44.11,8.92,8.92,0,0,0,2.13-.72c.46-.13.85-.5,1.38-.32.06,0,.16,0,.17,0,.33-.83,1.3-.93,1.78-1.54a13.17,13.17,0,0,0,1-1.5,1.31,1.31,0,0,0-.32-1.79,5.53,5.53,0,0,0-2.24-1,7.28,7.28,0,0,0-2.28-.08,2,2,0,0,1-1.54,0c-.33-.49,0-.64.38-.76a8.75,8.75,0,0,1,2.87-.37,4.14,4.14,0,0,0,1.36,0,1.34,1.34,0,0,1,1.44.33,1.26,1.26,0,0,0,1.06.35h0a20.53,20.53,0,0,0,1.4,1.56A3.9,3.9,0,0,1,20.91,10a4.61,4.61,0,0,0,.85,1.61,1.61,1.61,0,0,1,.39,1.83A4.39,4.39,0,0,0,22,15a1.07,1.07,0,0,1-.47.93c-.25.25,0,.49,0,.74.07.44-.43.69-.39,1.13-.27.44-.19,1.11-.85,1.29.67-.18.58-.87.86-1.31.11-.94.68-.66,1.22-.45a.41.41,0,0,1,.25.65,9.66,9.66,0,0,1-1.6,2.54c-.52.51-1.4.66-1.83,1.31a3.29,3.29,0,0,1-2.52,1.46c-.52.07-1,.56-1.55.45-.25-.05-.22.12-.26.26a.44.44,0,0,1-.46.37c-.43,0-.76-.16-1.18.37s-.4-.44-.58-.6c-.9-.11-1.21.64-1.74,1.11a1.25,1.25,0,0,1,1.53-.06,4,4,0,0,0,2.76.2c.42-.08.88-.14,1,.46V26c0,.59-.55.55-.87.58a12.64,12.64,0,0,1-6.22-.92A2.52,2.52,0,0,1,8.15,24.88Z"/><path class="a" d="M16.23,25.8a1.08,1.08,0,0,0-1-.14c-.78.14-1.59.45-2.33-.16-.63.6-1.22-1-1.9,0-.07.09-.46-.29-.76-.62,1.18.1,1.27-.7,1.38-1.55.17.68.31,1.16.88.31.27-.42.34.2.56.19v.92c.52-.44.2-.91.38-1.38.3.44.64,1,1.17.68s-.34-.44-.26-.81c.77.42,1.44,0,2.13-.21.45-.12.81-.59,1.37-.22a.3.3,0,0,0,.48-.31c-.08-.6.35-.72.72-1a7,7,0,0,1,1.72-1.14,2,2,0,0,0,.94-1.4c0-.65,1.14-.83.61-1.58a.13.13,0,0,1-.05-.12s0-.06.05-.06A1.14,1.14,0,0,1,23.35,17c-.54-.71.42-.94.42-1.47h0a3.59,3.59,0,0,0,.43-.14c.15-.06-.32-.5.2-.35a.42.42,0,0,1,.36.54c-.25,1-.42,2.13-.58,3.17a5.61,5.61,0,0,1-1,2.18,7.69,7.69,0,0,1-2.91,2.75,11.47,11.47,0,0,1-2.94,1.59c-.26.42-.73.4-1.11.55Z"/><path class="j" d="M21.56,15.88a7.12,7.12,0,0,0,.11-2.76c-.1-.41.37-.31.52-.53A2.3,2.3,0,0,1,21,10.92a9.21,9.21,0,0,0-2.2-3.18,1.23,1.23,0,0,1-.33-.86c.73.43,1.62.44,2.32.94.11.07.4,0,.31.23-.52,1.1.47.76.83.8.78.07-.16.26.05.39a.43.43,0,0,0,.5,0c.32-.19.34-.44.09-.67s-.62-.31-.42-.76l.36-.36c.2,0,.16.76.56.18h.18a2.29,2.29,0,0,0,.21,1.46A3.11,3.11,0,0,1,23.66,11c-.15.47-.23,1.11-.78,1.43-.15.09-.32.35-.2.55s.36.13.55,0a.23.23,0,0,1,.37.1c0,.07-.1.23-.18.27-1.08.54-1.08.53-1,1.93C22.51,15.71,22.3,15.86,21.56,15.88Z"/><path class="j" d="M22.3,17.17v.18c-.44-.11-.86-.14-1.1.37h0a.73.73,0,0,1,.36-1.1Z"/><path class="i" d="M16.23,25.8c.25-.41.73-.37,1.11-.55C17.17,25.84,16.68,25.79,16.23,25.8Z"/><path class="a" d="M23.77,14.78v.73h0c-.17-.24-.59-.49,0-.73Z"/><path class="a" d="M23.77,14.78c.12-.21.26-.38.56-.3-.08.37-.36.26-.56.3Z"/><path class="j" d="M18.44,6.88c-.4.78-.81.3-1.17,0s-.53-.71-1-.35-1.08-.24-1.66-.24a10.59,10.59,0,0,0-3.65.6c-2.76,1-4.1,3.08-4.87,5.71-.11.38-.15.78-.52,1a1.53,1.53,0,0,1-1,.12c-.79-.65-.8-1.17,0-1.66.17-.1.13-.24.09-.39C5,10.25,5.35,8.83,6.75,8A15.22,15.22,0,0,0,8.09,6.8c1.09-.81,2.4-1,3.55-1.58h.18c.25.33.45.56.95.25s1.11.09,1.62-.25h0c.23.15.54,0,.74.18s.22-.17.24-.16A3.9,3.9,0,0,0,18,6.08C17.86,6.51,18.6,6.43,18.44,6.88Z"/><path class="g" d="M15.13,5.4c-.27,0-.57.21-.74-.18C14.7,5.05,15,5.05,15.13,5.4Z"/><path class="g" d="M11.64,5.22c-.2.74-.93.8-1.46,1S9.06,6.82,8.61,7c-1,.29-1.17,1.63-2.31,1.59-.16,0-.16.07,0,.74-.06.39-.51-.71-.57.18a3,3,0,0,1-.88,1.68.41.41,0,0,0,0,.5c-.14.49-.43.39-.74.19-.48-.67.41-.93.45-1.49,0-.72.79-1.23.84-2h0c.18-.68.76-.95,1.29-1.29.83-.29,1.18-1.32,2.1-1.44A11.5,11.5,0,0,0,11.09,5,.65.65,0,0,0,11.64,5.22Z"/><path class="k" d="M4.1,11.84c.26,0,.53,0,.74-.19.64.2.08.59.07.83s-.24,0-.35-.09-.3-.11-.41,0,.11.22.16.34-.32.59.16.75c.19.29.86.56,0,.89-.09,0-.1,0,0,0,.92.85-.56,1.7,0,2.65.31.5-.13,1.33-.17,2a2.21,2.21,0,0,0,.28,1.35c.23.39.46.85-.15,1.16-.32-.05-.41-.33-.54-.57.06-.73-.52-1.21-.78-1.8a3.18,3.18,0,0,1-.38-2.51c0-.11-.26-.35-.43-.56,0-.23,1.29,0,.3-.64-.5-.13-.26-.51-.07-.56.74-.21.8-.62.72-1.31A2.5,2.5,0,0,1,4.1,11.84Z"/><path class="h" d="M6.68,7.06A4,4,0,0,1,5.39,8.35c0-.32.08-.66-.19-.92C5.59,6.89,6.23,7.36,6.68,7.06Z"/><path class="h" d="M5.21,7.42c0,.21-.07.41-.32.48C4.76,7.58,5.07,7.56,5.21,7.42Z"/><path class="l" d="M4.46,21.59c.33-.64-.12-1-.46-1.45s-.47-.56,0-.9-.1-.82,0-1c.47-.84,0-1.63,0-2.42,0-.59.48-.32.65-.54A1,1,0,0,1,4,14.05c.12-.56.26.46.55,0l-.12-.61h.92a.44.44,0,0,1,.32.4,9.62,9.62,0,0,0,2.8,6.41c.09.51.63.53.92.83s.43.46.3.84c-.06.18.08.45-.28.43s-.28-.14-.34-.34c-.22-.87-1-1-1.79-.53a1.5,1.5,0,0,1-1,.37,2.5,2.5,0,0,1,.09-1,.5.5,0,0,0-.08-.65c-.2-.22-.29.08-.4.18s-.42.4,0,.62c.13.08.08.21,0,.3s0,0,0,0a2,2,0,0,0,.62,1.81c.19.17.09.39.11.6a2.09,2.09,0,0,1-1.1-.93A2.26,2.26,0,0,0,4.65,22Z"/><path class="k" d="M4.65,22c.56.05,1,.24.92.92A3,3,0,0,1,4.65,22Z"/><path class="m" d="M8.51,20.3a7.86,7.86,0,0,1-2.12-2.53c-.58-1-.69-2.22-1.2-3.27-.16-.33.59-.57.2-1,.42-.5.29-1.16.49-1.73a10.47,10.47,0,0,1,4-5c.3-.22.52.09.82,0a6.77,6.77,0,0,1,5.54-.18c-.26.26-.55.1-.85.07A7.81,7.81,0,0,0,11.55,7c-.19.07-.27.12-.1.28.05.56-.43.57-.75.74a6.76,6.76,0,0,0-3.6,4.16c-.08.28-.28.61.07.83s.58,0,.8-.24c.74-.74,1.9-1.06,2.15-2.25,0-.06.08-.13.12-.13,1-.07,1.15-1.06,1.74-1.57s.39-1.2.76-1.72a4.33,4.33,0,0,1,2.57,0,2.66,2.66,0,0,1,0,3.49,14.37,14.37,0,0,0-1.22,1.78,6.47,6.47,0,0,1-1.82,1.52c-.36.27-.8.44-1.14.74-.66-.38-1.21.18-1.83.23s-1.11.58-1.76.6-.93.19-1,.72A1.25,1.25,0,0,0,7,17.54c.75.14.63.77.74,1.28a1,1,0,0,0,.46.91C8.42,19.88,8.67,20,8.51,20.3Z"/><path class="n" d="M11.09,14.59c.07-.34.06-.65.55-.8s1-.23,1-.93c0-.08.16-.24.24-.23.86.08,1.1-.42,1.13-1.16,0-.12.14-.27.25-.36,1.46-1.06,1.61-2.46,1.08-4a12.49,12.49,0,0,1,1.79.69c1,.38,1.21,1.19,1.26,2.11,0,.21-.13.29-.24.43-.38.5-1,.87-1,1.6a.4.4,0,0,1-.35.37c-.76.15-1.42.38-1.43,1.33,0,0-.09.13-.12.12-1.48-.52-2.55.68-3.85.92A.63.63,0,0,1,11.09,14.59Z"/><path class="o" d="M12.74,7.06c0,.78.3,1.69-.79,2.06a.37.37,0,0,0-.2.38c0,.74-.43,1-1.11,1-.15,0-.42.07-.36.15.57.82-.75.82-.61,1.45,0,.13-.13.2-.26.17-.69-.12-.93.48-1.3.85a1,1,0,0,1-.77.35c-1,0-.85-.45-.69-1A6.69,6.69,0,0,1,11,7.54a2.21,2.21,0,0,0,.45-.3Z"/><path class="p" d="M8.33,19.19,8,18.82c-.64-.75-.51-1.25.4-1.51a3.61,3.61,0,0,1,.72-.12,4,4,0,0,0,2.82-.27,1.38,1.38,0,0,1,.89-.14c.12,0,0,.06.09,0,1.54-.67,3,.42,4.49.3A2.56,2.56,0,0,0,19.69,16a.73.73,0,0,1,.19-.2c.22-.16.45-.43.72-.27s.17.47,0,.73a6.12,6.12,0,0,1-2.95,4,.3.3,0,0,1-.08-.24c.16-.41.09-.78-.4-.8a14.12,14.12,0,0,1-2-.45,2.47,2.47,0,0,0-1.79.12A.53.53,0,0,1,13,19,13.5,13.5,0,0,0,8.33,19.19Z"/><path class="q" d="M9.07,17.35c0,.26-.24.2-.42.22-1,.15-1.07.36-.69,1.25H7.78c-.5-.28-.33-.95-.74-1.28,0-1,.87-.86,1.41-1a19.43,19.43,0,0,0,4.2-1.23,8.22,8.22,0,0,1,2.83-.26c1.24,0,2.18-.83,3.25-1.27.67-.29.58-1.1.88-1.65.17-.32.33-.65.65-.68s.33.39.41.62A3.3,3.3,0,0,1,21,13.49c-1.25,1.41-2.48,2.84-4.5,3.14a1.23,1.23,0,0,1-.71,0c-1.18-.55-2.32-.1-3.45.16A16.64,16.64,0,0,1,9.07,17.35Z"/><path class="r" d="M9.07,17.35c.86-.35,1.85-.4,2.67-.71,1-.37,2.1-.12,3-.71.15-.09.31-.12.42,0,.8.87,1.62.19,2.42,0S19,15,19.64,14.42A13.17,13.17,0,0,1,21,13.49a6,6,0,0,1-.36,2.76v-.58c-.42.32-1,.37-.82,1a.46.46,0,0,1-.09.23c-.73-.19-1.16.69-1.9.51a2.46,2.46,0,0,0-.9-.05,4.11,4.11,0,0,1-2.41-.51c-.28-.13-.36-.08-.59.09s-.76.54-1.23.13a.54.54,0,0,0-.68.08A2.78,2.78,0,0,1,9.07,17.35Z"/><path class="d" d="M8.33,19.19c1.15-1.07,2.6-.74,3.9-.6.68.08,1.19-.29,1.8-.22s1.41-.15,2,.38c.34.3.78,0,1.16.1s.74.09.88.53-.11.56-.38.73a.32.32,0,0,1-.18.06,5.85,5.85,0,0,0-3.69.23,4.84,4.84,0,0,1-2.61-.31,3.24,3.24,0,0,0-1.8,0A1.89,1.89,0,0,1,8.33,19.19Z"/><path class="s" d="M9.43,20.11c.2-.73.72-.63,1.27-.51A10.19,10.19,0,0,0,13,20c.69,0,1.29.18,1.92-.45s1.28-.15,1.91.15l.84.37v.18a7,7,0,0,1-7.88.19A2.26,2.26,0,0,1,9.43,20.11Z"/><path class="j" d="M21.2,17.72c.54.57,0,.93-.34,1.16s-.33,1-.77.63.24-.58.42-.88.12-.84.69-.91Z"/><path class="l" d="M8.53,22.79l.1-1A.65.65,0,0,1,8.53,22.79Z"/><path class="h" d="M2.63,15.51c.12-.16.12-.44.4-.42a.19.19,0,0,1,.16.27c-.11.26-.37.11-.56.15Z"/><path class="i" d="M5.94,21.39l-.73.17c.23-.39.46-.39.73-.17Z"/></svg>