<svg xmlns="http://www.w3.org/2000/svg" xmlns:xlink="http://www.w3.org/1999/xlink" viewBox="0 0 39 38"><defs><style>.a{fill:none;}.b{clip-path:url(#a);}.c{fill:#b3b3b3;}.d{fill:#f2f2f2;}.e{fill:#e6e6e6;}</style><clipPath id="a"><path class="a" d="M.94,35.8S7,34.14,17.83,34.74c11.72.64,19.66,1.77,19.66,1.77a63.65,63.65,0,0,0-.62-11.24c-.36-2-1.06-3.24-1.23-4.29C35.1,17.49,34.18-.43,23,.6S4.6,13.8,3.54,20.36.94,35.8.94,35.8Z"/></clipPath></defs><g class="b"><path class="c" d="M.94,35.8S7,34.14,17.83,34.74c11.72.64,19.66,1.77,19.66,1.77a63.65,63.65,0,0,0-.62-11.24c-.36-2-1.06-3.24-1.23-4.29C35.1,17.49,34.18-.43,23,.6S4.6,13.8,3.54,20.36.94,35.8.94,35.8Z"/><path class="a" d="M.94,35.8S7,34.14,17.83,34.74c11.72.64,19.66,1.77,19.66,1.77a63.65,63.65,0,0,0-.62-11.24c-.36-2-1.06-3.24-1.23-4.29C35.1,17.49,34.18-.43,23,.6S4.6,13.8,3.54,20.36.94,35.8.94,35.8Z"/><path class="d" d="M.94,35.8S7.18,34,18,34.58c11.72.65,19.51,1.93,19.51,1.93a63.65,63.65,0,0,0-.62-11.24c-.36-2-1.06-3.24-1.23-4.29-.54-3.49-31-7.18-32.1-.62S.94,35.8.94,35.8Z"/><path class="e" d="M36.87,25.27c-.36-2-1.06-3.24-1.23-4.29s-.46-3.55-1.08-6.43c-10-3.29-18.8-3.15-29.83-2.29-1.88,2.86-.83,5.82-1.19,8.1C14.06,19.73,28.67,19,36.87,25.27Z"/></g></svg>